<svg xmlns="http://www.w3.org/2000/svg" viewBox="0 0 686 458">
  <title>TechTelligence</title>
  <path fill="#1A2A44" d="M344.7 2.43c-0.8 1.3-7.7 12.5-15.2 24.9-7.6 12.4-20.2 32.8-28 45.5-7.8 12.6-20.5 33.1-28.1 45.5-7.6 12.4-18.5 30.1-24.2 39.5-5.8 9.3-12.4 20.1-14.7 24-12.3 20.4-34.9 57.4-68.1 111.3-7.9 12.8-15.1 24.6-15.9 26.2l-1.6 3 3.3 0.1c2.7 0 56.8 0 58.9-0.1 0.4 0 2.8-3.5 5.4-7.8 2.7-4.2 8.3-13.3 12.5-20.2 4.3-6.9 12.1-19.7 17.5-28.5 5.4-8.8 13.9-22.8 19-31 27.3-44.2 45.2-73.2 57-92.5 7.2-11.8 21.5-35 31.7-51.5 10.2-16.5 19.7-32 21.1-34.5l2.6-4.5-11.9-19.5c-6.5-10.7-13.6-22.4-15.8-25.9l-3.9-6.4-1.6 2.4z M389.4 82.53c-2.1 3.5-6.7 11-10.2 16.8-14.9 24.3-17.2 28.1-17.2 29 0 0.4 2.9 5.5 6.4 11.2 6.4 10.4 42.6 69.3 52 84.5 10.5 17 18.7 30.4 30.8 50.3 6.9 11.3 16.3 26.7 20.9 34.2l8.4 13.7 31.4 0.1c26.4 0 31.2-0.2 30.8-1.4-0.3-0.8-3.6-6.3-7.3-12.2-3.7-6-9.3-15.2-12.4-20.4-3.2-5.2-13.7-22.6-23.5-38.5-9.8-16-27.1-44.3-38.5-63-38.3-62.9-65.3-107-66.5-108.8-1.2-1.7-1.6-1.2-5.1 4.5z M330.1 179.63c-8.5 13.8-21.7 35.3-29.4 47.7-7.7 12.4-17.3 27.9-21.4 34.5-4 6.6-14 22.8-22.2 36l-14.8 24 31.1 0.3c28.9 0.2 31.2 0.1 32.4-1.5 1.8-2.3 19.4-30.8 30.6-49.3 4.8-8 9.3-14.5 9.9-14.5 1.3 0 6.7 8.4 27.4 42.7l13.8 22.8 31.3 0 31.3 0-1.2-2.3c-1.2-2.3-8.4-14-28.9-47.2-34.1-55.1-44.5-71.9-56.8-92-7.4-12.1-14.1-23-14.8-24.3-0.8-1.2-1.8-2.2-2.2-2.2-0.4 0-7.6 11.4-16.1 25.3z"/>
  <path fill="#1A2A44" d="M0 400.33l0 3 23 0 23 0 0-3 0-3-23 0-23 0 0 3z M54 405.83l0 8.5 3.5 0 3.5 0 0-5.5 0-5.5 15.5 0 15.5 0 0-3 0-3-19 0-19 0 0 8.5z M114.4 398.93c-5.7 2-12 8.6-14.4 15.1-2.6 7.1-2.6 7.3 1.5 7.3 3.1 0 3.5-0.3 4.6-3.9 0.7-2.2 2.5-5.5 4-7.4 7.4-8.9 21.1-9 28.4-0.1 1.9 2.3 2.1 2.4 4.3 0.9 2.8-2.1 2.8-2.7-0.5-6.5-5.4-6.5-18-8.9-27.9-5.4z M156 425.33l0 28 3.5 0 3.5 0 0-28 0-28-3.5 0-3.5 0 0 28z M194 409.33l0 12-12 0-12 0 0 3 0 3 12 0 12 0 0 13 0 13 3.5 0 3.5 0 0-28 0-28-3.5 0-3.5 0 0 12z M19 431.83l0 21.5 3.5 0 3.5 0 0-21.5 0-21.5-3.5 0-3.5 0 0 21.5z M54 431.33l0 9 3.5 0 3.4 0 0.3-6.3 0.3-6.2 13.3-0.3 13.2-0.3 0-2.4 0-2.5-17 0-17 0 0 9z M98.5 431.53c1.1 5.3 5.6 12.8 9.9 16.4 9.9 8.5 25.1 7.8 34.4-1.5 3.9-3.9 4-5.4 0.7-6.9-2.3-1.1-2.9-0.9-5.6 2.3-4.1 4.6-10.8 6.7-17.3 5.3-6.2-1.3-11.8-6.6-14.2-13.6-1.8-4.9-2.1-5.2-5.2-5.2-3.3 0-3.3 0.1-2.7 3.2z M54 450.33l0 3 19.5 0 19.5 0 0-3 0-3-19.5 0-19.5 0 0 3z"/>
  <path fill="#727B8A" d="M210 400.33l0 3 22.5 0 22.5 0 0-3 0-3-22.5 0-22.5 0 0 3z M265 405.83l0 8.5 3 0c3 0 3-0.1 3-5.5l0-5.5 15 0 15 0 0-3 0-3-18 0-18 0 0 8.5z M313 418.33l0 21 3 0 3 0 0-21 0-21-3 0-3 0 0 21z M360 418.33l0 21 3 0 3 0 0-21 0-21-3 0-3 0 0 21z M406 425.33l0 28 3 0 3 0 0-28 0-28-3 0-3 0 0 28z M438.2 399.93c-8.9 4.4-14.7 14.4-14.7 25.4 0 18.2 17.6 32.4 33.4 26.9 2.5-0.9 3.1-1.6 3.1-4 0-2.5-0.3-2.8-1.7-2.1-9.2 4.8-21.8-0.2-26.4-10.3-2.5-5.4-2.5-15 0-20.7 5.9-13.5 22.3-16.7 31.3-6 2.4 2.9 2.5 2.9 4.8 1.2l2.3-1.7-2.4-3.2c-5.8-7.9-19.7-10.5-29.7-5.5z M484 405.83l0 8.5 3 0c3 0 3-0.1 3-5.5l0-5.5 15.5 0 15.5 0 0-3 0-3-18.5 0-18.5 0 0 8.5z M532 399.13c0 0.9 9.5 13.5 21 28 17.4 21.6 21.5 26.2 23.5 26.2l2.5 0 0-28 0-28-3 0-3 0-0.2 22.2-0.3 22.2-17.8-22.2c-14.5-18.2-18.2-22.2-20.2-22.2-1.7 0-2.5 0.6-2.5 1.8z M606.6 399.33c-7.9 3.1-12.8 8.9-15.4 18.2l-1 3.8 3.1 0c3 0 3.4-0.4 5-5 5-14 21.1-18.2 30.8-8 3.5 3.7 3.6 3.7 6 2l2.3-1.8-4.4-4.5c-6.9-6.8-16.5-8.6-26.4-4.7z M648 405.83l0 8.5 3.5 0 3.5 0 0-5.5 0-5.5 15 0 15 0 0-3 0-3-18.5 0-18.5 0 0 8.5z M230 432.33l0 21 3 0 3 0 0-21 0-21-3 0-3 0 0 21z M532 433.83l0 19.5 3.5 0 3.5 0 0-15.3 0-15.3-3.1-4.2c-1.7-2.3-3.3-4.2-3.5-4.2-0.2 0-0.4 8.8-0.4 19.5z M265 430.83l0 8.5 3 0 3 0 0-6 0-6 13 0 13 0 0-2.5 0-2.5-16 0-16 0 0 8.5z M484 430.83l0 8.5 3 0 3 0 0-6 0-6 13.5 0 13.5 0 0-2.5 0-2.5-16.5 0-16.5 0 0 8.5z M648 430.83l0 8.5 3.5 0 3.5 0 0-6 0-6 13 0 13 0 0-2.5 0-2.5-16.5 0-16.5 0 0 8.5z M455 428.33c0 1.8 0.7 2 6 2l6 0 0 11.5 0 11.5 2.5 0 2.5 0 0-13.5 0-13.5-8.5 0c-7.8 0-8.5 0.2-8.5 2z M591 431.03c0 3.2 4.6 11.7 8.1 15.2 9.8 9.8 27.1 9.5 36-0.7l3.1-3.5-2.2-1.7c-2.2-1.7-2.4-1.6-6 2-10.3 10.3-26.6 6.1-31.8-8.3-1.4-4.1-2-4.7-4.4-4.7-2 0-2.8 0.5-2.8 1.7z M265 450.33l0 3 18.5 0 18.5 0 0-3 0-3-18.5 0-18.5 0 0 3z M313 450.33l0 3 19 0 19 0 0-3 0-3-19 0-19 0 0 3z M360 450.33l0 3 18.5 0 18.5 0 0-3 0-3-18.5 0-18.5 0 0 3z M484 450.33l0 3 19 0 19 0 0-3 0-3-19 0-19 0 0 3z M648 450.33l0 3 19 0 19 0 0-3 0-3-19 0-19 0 0 3z"/>
</svg>
