<?xml version="1.0" standalone="no"?>
<!DOCTYPE svg PUBLIC "-//W3C//DTD SVG 20010904//EN"
 "http://www.w3.org/TR/2001/REC-SVG-20010904/DTD/svg10.dtd">
<svg version="1.0" xmlns="http://www.w3.org/2000/svg"
 width="686.000000pt" height="453.872881pt" viewBox="0 0 686.000000 453.872881"
 preserveAspectRatio="xMidYMid meet">
<metadata>
Created by potrace 1.12, written by Peter Selinger 2001-2015
</metadata>
<g transform="translate(-90.000000,508.332523) scale(0.100000,-0.100000)"
fill="#000000" stroke="none">
<path d="M4347 5059 c-8 -13 -77 -125 -152 -249 -76 -124 -202 -328 -280 -455
-78 -126 -205 -331 -281 -455 -76 -124 -185 -301 -242 -395 -58 -93 -124 -201
-147 -240 -123 -204 -349 -574 -681 -1113 -79 -128 -151 -246 -159 -262 l-16
-30 33 -1 c27 0 568 0 589 1 4 0 28 35 54 78 27 42 83 133 125 202 43 69 121
197 175 285 54 88 139 228 190 310 273 442 452 732 570 925 72 118 215 350
317 515 102 165 197 320 211 345 l26 45 -119 195 c-65 107 -136 224 -158 259
l-39 64 -16 -24z"/>
<path d="M4794 4258 c-21 -35 -67 -110 -102 -168 -149 -243 -172 -281 -172
-290 0 -4 29 -55 64 -112 64 -104 426 -693 520 -845 105 -170 187 -304 308
-503 69 -113 163 -267 209 -342 l84 -137 314 -1 c264 0 312 2 308 14 -3 8 -36
63 -73 122 -37 60 -93 152 -124 204 -32 52 -137 226 -235 385 -98 160 -271
443 -385 630 -383 629 -653 1070 -665 1088 -12 17 -16 12 -51 -45z"/>
<path d="M4201 3287 c-85 -138 -217 -353 -294 -477 -77 -124 -173 -279 -214
-345 -40 -66 -140 -228 -222 -360 l-148 -240 311 -3 c289 -2 312 -1 324 15 18
23 194 308 306 493 48 80 93 145 99 145 13 0 67 -84 274 -427 l138 -228 313 0
313 0 -12 23 c-12 23 -84 140 -289 472 -341 551 -445 719 -568 920 -74 121
-141 230 -148 243 -8 12 -18 22 -22 22 -4 0 -76 -114 -161 -253z"/>
<path d="M900 1080 l0 -30 230 0 230 0 0 30 0 30 -230 0 -230 0 0 -30z"/>
<path d="M1440 1025 l0 -85 35 0 35 0 0 55 0 55 155 0 155 0 0 30 0 30 -190 0
-190 0 0 -85z"/>
<path d="M2044 1094 c-57 -20 -120 -86 -144 -151 -26 -71 -26 -73 15 -73 31 0
35 3 46 39 7 22 25 55 40 74 74 89 211 90 284 1 19 -23 21 -24 43 -9 28 21 28
27 -5 65 -54 65 -180 89 -279 54z"/>
<path d="M2460 830 l0 -280 35 0 35 0 0 280 0 280 -35 0 -35 0 0 -280z"/>
<path d="M2840 990 l0 -120 -120 0 -120 0 0 -30 0 -30 120 0 120 0 0 -130 0
-130 35 0 35 0 0 280 0 280 -35 0 -35 0 0 -120z"/>
<path d="M3000 1080 l0 -30 225 0 225 0 0 30 0 30 -225 0 -225 0 0 -30z"/>
<path d="M3550 1025 l0 -85 30 0 c30 0 30 1 30 55 l0 55 150 0 150 0 0 30 0
30 -180 0 -180 0 0 -85z"/>
<path d="M4030 900 l0 -210 30 0 30 0 0 210 0 210 -30 0 -30 0 0 -210z"/>
<path d="M4500 900 l0 -210 30 0 30 0 0 210 0 210 -30 0 -30 0 0 -210z"/>
<path d="M4960 830 l0 -280 30 0 30 0 0 280 0 280 -30 0 -30 0 0 -280z"/>
<path d="M5282 1084 c-89 -44 -147 -144 -147 -254 0 -182 176 -324 334 -269
25 9 31 16 31 40 0 25 -3 28 -17 21 -92 -48 -218 2 -264 103 -25 54 -25 150 0
207 59 135 223 167 313 60 24 -29 25 -29 48 -12 l23 17 -24 32 c-58 79 -197
105 -297 55z"/>
<path d="M5740 1025 l0 -85 30 0 c30 0 30 1 30 55 l0 55 155 0 155 0 0 30 0
30 -185 0 -185 0 0 -85z"/>
<path d="M6220 1092 c0 -9 95 -135 210 -280 174 -216 215 -262 235 -262 l25 0
0 280 0 280 -30 0 -30 0 -2 -222 -3 -222 -178 222 c-145 182 -182 222 -202
222 -17 0 -25 -6 -25 -18z"/>
<path d="M6966 1090 c-79 -31 -128 -89 -154 -182 l-10 -38 31 0 c30 0 34 4 50
50 50 140 211 182 308 80 35 -37 36 -37 60 -20 l23 18 -44 45 c-69 68 -165 86
-264 47z"/>
<path d="M7380 1025 l0 -85 35 0 35 0 0 55 0 55 150 0 150 0 0 30 0 30 -185 0
-185 0 0 -85z"/>
<path d="M1090 765 l0 -215 35 0 35 0 0 215 0 215 -35 0 -35 0 0 -215z"/>
<path d="M3200 760 l0 -210 30 0 30 0 0 210 0 210 -30 0 -30 0 0 -210z"/>
<path d="M6220 745 l0 -195 35 0 35 0 0 153 0 153 -31 42 c-17 23 -33 42 -35
42 -2 0 -4 -88 -4 -195z"/>
<path d="M1440 770 l0 -90 35 0 34 0 3 63 3 62 133 3 132 3 0 24 0 25 -170 0
-170 0 0 -90z"/>
<path d="M3550 775 l0 -85 30 0 30 0 0 60 0 60 130 0 130 0 0 25 0 25 -160 0
-160 0 0 -85z"/>
<path d="M5740 775 l0 -85 30 0 30 0 0 60 0 60 135 0 135 0 0 25 0 25 -165 0
-165 0 0 -85z"/>
<path d="M7380 775 l0 -85 35 0 35 0 0 60 0 60 130 0 130 0 0 25 0 25 -165 0
-165 0 0 -85z"/>
<path d="M5450 800 c0 -18 7 -20 60 -20 l60 0 0 -115 0 -115 25 0 25 0 0 135
0 135 -85 0 c-78 0 -85 -2 -85 -20z"/>
<path d="M1885 768 c11 -53 56 -128 99 -164 99 -85 251 -78 344 15 39 39 40
54 7 69 -23 11 -29 9 -56 -23 -41 -46 -108 -67 -173 -53 -62 13 -118 66 -142
136 -18 49 -21 52 -52 52 -33 0 -33 -1 -27 -32z"/>
<path d="M6810 773 c0 -32 46 -117 81 -152 98 -98 271 -95 360 7 l31 35 -22
17 c-22 17 -24 16 -60 -20 -103 -103 -266 -61 -318 83 -14 41 -20 47 -44 47
-20 0 -28 -5 -28 -17z"/>
<path d="M1440 580 l0 -30 195 0 195 0 0 30 0 30 -195 0 -195 0 0 -30z"/>
<path d="M3550 580 l0 -30 185 0 185 0 0 30 0 30 -185 0 -185 0 0 -30z"/>
<path d="M4030 580 l0 -30 190 0 190 0 0 30 0 30 -190 0 -190 0 0 -30z"/>
<path d="M4500 580 l0 -30 185 0 185 0 0 30 0 30 -185 0 -185 0 0 -30z"/>
<path d="M5740 580 l0 -30 190 0 190 0 0 30 0 30 -190 0 -190 0 0 -30z"/>
<path d="M7380 580 l0 -30 190 0 190 0 0 30 0 30 -190 0 -190 0 0 -30z"/>
</g>
</svg>
