<svg xmlns="http://www.w3.org/2000/svg" viewBox="0 0 64 64">
  <rect width="64" height="64" rx="12" fill="#1A2A44"/>
  <path fill="#FFFFFF" d="M31.85 13.47c-0.09 0.15-0.9 1.46-1.77 2.91-0.89 1.45-2.36 3.83-3.27 5.31-0.91 1.47-2.39 3.86-3.28 5.31-0.89 1.45-2.16 3.51-2.82 4.61-0.68 1.09-1.45 2.35-1.72 2.8-1.44 2.38-4.07 6.7-7.95 12.99-0.92 1.49-1.76 2.87-1.85 3.06l-0.19 0.35 0.39 0.01c0.32 0 6.63 0 6.87-0.01 0.05 0 0.33-0.41 0.63-0.91 0.32-0.49 0.97-1.55 1.46-2.36 0.5-0.81 1.41-2.3 2.04-3.33 0.63-1.03 1.62-2.66 2.22-3.62 3.19-5.16 5.27-8.54 6.65-10.79 0.84-1.38 2.51-4.08 3.7-6.01 1.19-1.93 2.3-3.73 2.46-4.03l0.3-0.52-1.38-2.28c-0.76-1.25-1.59-2.61-1.85-3.02l-0.45-0.75-0.19 0.28z"/>
  <path fill="#FFFFFF" d="M37.07 22.82c-0.25 0.41-0.78 1.28-1.19 1.96-1.74 2.84-2.01 3.28-2.01 3.39 0 0.05 0.34 0.64 0.75 1.3 0.75 1.21 4.97 8.09 6.06 9.86 1.23 1.98 2.18 3.55 3.6 5.87 0.81 1.32 1.9 3.12 2.44 4l0.98 1.59 3.66 0.02c3.08 0 3.64-0.02 3.6-0.17-0.04-0.09-0.42-0.74-0.86-1.42-0.43-0.7-1.09-1.77-1.44-2.38-0.37-0.61-1.6-2.64-2.74-4.49-1.14-1.87-3.16-5.17-4.5-7.36-4.47-7.34-7.62-12.49-7.76-12.69-0.14-0.2-0.19-0.14-0.59 0.52z"/>
  <path fill="#F59E0B" d="M30.15 34.15c-0.99 1.61-2.53 4.12-3.43 5.57-0.9 1.45-2.02 3.26-2.5 4.03-0.47 0.77-1.63 2.66-2.59 4.2l-1.73 2.8 3.63 0.03c3.37 0.02 3.64 0.01 3.78-0.17 0.21-0.27 2.26-3.59 3.57-5.76 0.56-0.93 1.09-1.69 1.16-1.69 0.15 0 0.78 0.98 3.19 4.99l1.61 2.66 3.66 0 3.65 0-0.14-0.27c-0.14-0.27-0.98-1.63-3.37-5.51-3.98-6.43-5.19-8.39-6.63-10.74-0.86-1.41-1.65-2.68-1.73-2.83-0.09-0.14-0.21-0.26-0.26-0.26-0.05 0-0.89 1.33-1.87 2.95z"/>
</svg>
