<svg width="215" height="48" viewBox="0 0 215 48" fill="none" xmlns="http://www.w3.org/2000/svg">
<path d="M67.4883 26.4874H73.7568L70.7964 16.8607H70.7171L67.4883 26.4874ZM67.0179 8.71777H76.0934L86.1787 38.1806H77.4176L75.6639 32.5689H65.6169L63.7098 38.1806H57.0527L67.0179 8.71777Z" fill="#0C233F"/>
<path d="M91.6693 31.5919C93.1853 33.7354 94.9774 34.4388 97.5876 34.4388C99.5739 34.4388 100.819 33.6944 100.819 32.801C100.819 32.0976 100.586 31.5149 96.6161 30.8936C92.8376 30.3083 90.8896 29.723 89.6062 28.3214C88.4379 27.0738 87.9675 25.477 87.9675 24.1883C87.9675 20.2144 91.2782 16.9028 96.8487 16.9028C100.274 16.9028 104.206 17.7217 105.998 20.9948L101.678 23.5286C101.133 22.2014 98.7968 21.4235 97.2373 21.4235C95.6804 21.4235 94.4329 21.7752 94.4329 23.0203C94.4329 23.8751 95.1717 24.1498 97.7026 24.4604C104.283 25.3178 107.517 27.3844 107.517 31.4379C107.517 35.7609 104.597 38.7259 96.8845 38.7259C92.991 38.7259 89.642 37.6708 87.3438 34.3592L91.6693 31.5919Z" fill="#0C233F"/>
<path d="M113.321 31.5914C114.837 33.7349 116.632 34.4383 119.239 34.4383C121.228 34.4383 122.473 33.6939 122.473 32.8005C122.473 32.0971 122.241 31.5144 118.268 30.8931C114.489 30.3078 112.544 29.7225 111.258 28.3209C110.09 27.0733 109.624 25.4765 109.624 24.1878C109.624 20.2139 112.935 16.9023 118.503 16.9023C121.929 16.9023 125.863 17.7213 127.65 20.9943L123.33 23.5281C122.785 22.2009 120.449 21.423 118.889 21.423C117.335 21.423 116.087 21.7747 116.087 23.0198C116.087 23.8746 116.829 24.1493 119.359 24.4599C125.937 25.3174 129.171 27.3839 129.171 31.4374C129.171 35.7604 126.249 38.7254 118.539 38.7254C114.643 38.7254 111.294 37.6703 108.998 34.3588L113.321 31.5914Z" fill="#0C233F"/>
<path d="M145.372 27.8126C145.372 22.9813 144.086 21.6567 141.942 21.6567C139.802 21.6567 138.516 22.9813 138.516 27.8126C138.516 32.6465 139.802 33.9711 141.942 33.9711C144.086 33.9711 145.372 32.6439 145.372 27.8126ZM141.944 38.728C135.443 38.728 130.885 34.7105 130.885 27.8126C130.885 21.4615 135.169 16.9023 141.944 16.9023C148.254 16.9023 153.006 21.1509 153.006 27.8126C153.006 34.3998 148.565 38.728 141.944 38.728Z" fill="#0C233F"/>
<path d="M168.037 24.7343C167.919 23.099 167.374 21.6563 165.309 21.6563C163.754 21.6563 162.272 22.9809 162.272 27.8122C162.272 32.374 163.44 33.9708 166.048 33.9708C168.425 33.9708 169.32 32.3329 169.944 30.4615L175.202 31.3959C173.408 35.9577 170.373 38.7251 165.232 38.7251C159.079 38.7251 154.641 34.7075 154.641 27.8097C154.641 21.4586 158.925 16.8994 165.155 16.8994C170.217 16.8994 173.41 19.4717 174.658 24.3056L168.037 24.7343Z" fill="#0C233F"/>
<path d="M177.229 17.4485H184.548V38.178H177.229V17.4485ZM177.229 8.71777H184.548V14.5631H177.229V8.71777Z" fill="#0C233F"/>
<path d="M199.347 28.7085C197.243 28.9832 194.091 29.5274 194.091 31.9816C194.091 33.5013 195.569 34.2047 196.348 34.2047C197.443 34.2047 198.294 33.776 199.347 33.0341V28.7085ZM187.979 22.6707C188.914 18.227 193.12 16.9023 197.21 16.9023C204.8 16.9023 206.439 19.7056 206.439 22.9813V34.0892C206.439 34.7926 206.516 37.1261 207.257 38.1812H199.738C199.582 37.6729 199.465 36.9721 199.426 36.3123C197.752 37.8321 195.418 38.7306 193.12 38.7306C191.133 38.7306 187.002 37.6755 187.002 32.6105C187.002 26.9218 193.391 25.2455 199.388 25.207V23.4896C199.388 21.9288 198.258 21.423 196.936 21.423C195.144 21.423 194.482 22.3985 194.05 23.9568L187.979 22.6707Z" fill="#0C233F"/>
<path d="M211.648 13.4594H211.383L211.224 13.5442L211.17 13.6725V14.7379L211.193 14.7918H211.544C212.126 14.7918 212.449 14.5222 212.449 14.0987C212.446 13.7239 212.126 13.4594 211.648 13.4594ZM213.563 16.6504H213.244C212.766 16.6504 212.5 16.5451 212.285 16.2781C212.285 15.449 212.073 15.1075 211.541 15.1075H211.191L211.168 15.1614V16.119L211.222 16.2781L211.434 16.3321H211.646L211.7 16.386V16.599L211.646 16.6504H211.326L210.815 16.599L210.317 16.6504H209.997L209.943 16.599V16.386L209.997 16.3321H210.158L210.37 16.2781L210.421 16.119V13.67L210.37 13.5108L210.158 13.4594H210.01L209.946 13.3953V13.2053L210.01 13.1411H210.317L210.815 13.195L211.454 13.1411H211.912C212.656 13.1411 213.187 13.5134 213.187 14.0448C213.187 14.4709 212.87 14.7918 212.336 14.9201L212.763 15.1306L212.922 15.2898L213.134 16.1729L213.241 16.2781L213.453 16.3321H213.561L213.614 16.386V16.599L213.563 16.6504ZM211.702 12.181C210.107 12.181 208.936 13.3542 208.936 14.9484C208.936 16.6504 210 17.7157 211.702 17.7157C213.297 17.7157 214.468 16.5477 214.468 14.9484C214.468 13.2464 213.405 12.181 211.702 12.181ZM211.702 18.1419C209.68 18.1419 208.404 16.9199 208.404 14.9484C208.404 13.1925 209.892 11.7549 211.702 11.7549C213.722 11.7549 215 12.9794 215 14.9484C215 16.7043 213.51 18.1419 211.702 18.1419Z" fill="#0C233F"/>
<path d="M0.00255648 25.5634V47.9615H16.2924L22.3845 29.8351V25.5634H0.00255648ZM39.6331 48H47.7448V25.5634L39.6331 48ZM0 22.3981H22.3845V0H0V22.3981ZM25.3424 0V22.4392L33.4515 0H25.3424Z" fill="#0C233F"/>
<path d="M16.2773 47.9641H22.3848V29.8453L16.2773 47.9641ZM25.3426 25.6045V48H39.6129L47.7246 25.6045H25.3426ZM33.4748 0L25.3631 22.3981H47.7451V0H33.4748Z" fill="#FAA21B"/>
</svg>
