<svg width="106" height="23" viewBox="0 0 106 23" fill="none" xmlns="http://www.w3.org/2000/svg">
<g clip-path="url(#clip0_7015_18641)">
<mask id="mask0_7015_18641" style="mask-type:luminance" maskUnits="userSpaceOnUse" x="0" y="-1" width="106" height="24">
<path d="M105.541 -0.000152588H0.120117V22.59H105.541V-0.000152588Z" fill="white"/>
</mask>
<g mask="url(#mask0_7015_18641)">
<path d="M83.2101 9.92524V8.74851C83.2101 7.29626 82.7651 6.22803 81.8751 5.54365C81.0019 4.84254 79.8012 4.49203 78.2732 4.49203C77.3664 4.49203 76.552 4.60884 75.8299 4.84254C75.1078 5.05953 74.5285 5.29323 74.0919 5.54365C73.7393 5.76063 73.4874 5.98593 73.3363 6.21963C73.202 6.43662 73.1348 6.72036 73.1348 7.07097V9.92524V11.3023V15.6088C73.1348 15.926 73.2271 16.1598 73.4119 16.31C73.5965 16.4434 73.8653 16.5102 74.2179 16.5102C74.4193 16.5102 74.6041 16.4851 74.772 16.4352C74.9399 16.4017 75.0658 16.3682 75.1498 16.3349V11.3023V9.92524V6.97078C75.5193 6.75379 75.9642 6.56182 76.4848 6.39488C77.0053 6.22803 77.6015 6.14456 78.2732 6.14456C79.1631 6.14456 79.8684 6.36155 80.389 6.79553C80.9263 7.2295 81.195 7.91389 81.195 8.8486V9.92524V11.3023V15.6088C81.195 15.926 81.279 16.1598 81.4468 16.31C81.6316 16.4434 81.9087 16.5102 82.2781 16.5102C82.4628 16.5102 82.6391 16.4851 82.807 16.4352C82.9918 16.4017 83.1261 16.3682 83.2101 16.3349V11.3023V9.92524Z" fill="#111012"/>
<path d="M52.8007 16.415C52.4817 16.415 52.2131 16.3148 51.9946 16.1145C51.7932 15.8975 51.6924 15.6305 51.6924 15.3134V1.24203H53.7579V14.6624H60.9869C61.0709 14.7292 61.138 14.8377 61.1884 14.9879C61.2388 15.1381 61.2639 15.305 61.2639 15.4886C61.2639 15.7724 61.1884 15.9978 61.0374 16.1646C60.8862 16.3316 60.6847 16.415 60.4328 16.415H52.8007Z" fill="#111012"/>
<path d="M50.4704 10.6287C50.4704 11.8638 50.2354 12.9404 49.7651 13.8585C49.2949 14.7765 48.6317 15.4859 47.7752 15.9867C46.9189 16.4875 45.9113 16.7378 44.7527 16.7378C43.594 16.7378 42.5782 16.4875 41.7049 15.9867C40.8485 15.4859 40.1852 14.7765 39.715 13.8585C39.2449 12.9404 39.0098 11.8638 39.0098 10.6287C39.0098 9.37677 39.2449 8.30014 39.715 7.39877C40.202 6.48068 40.8736 5.77126 41.73 5.27053C42.6033 4.7698 43.6108 4.51938 44.7527 4.51938C45.8946 4.51938 46.8937 4.7698 47.7501 5.27053C48.6065 5.77126 49.2697 6.48068 49.74 7.39877C50.2269 8.30014 50.4704 9.37677 50.4704 10.6287ZM44.7527 6.17191C43.6276 6.17191 42.7292 6.57245 42.0576 7.37375C41.4026 8.15822 41.0752 9.24316 41.0752 10.6287C41.0752 12.0308 41.3943 13.1241 42.0323 13.9086C42.6873 14.693 43.594 15.0854 44.7527 15.0854C45.8946 15.0854 46.7845 14.693 47.4226 13.9086C48.0775 13.1074 48.4049 12.014 48.4049 10.6287C48.4049 9.24316 48.0775 8.15822 47.4226 7.37375C46.7845 6.57245 45.8946 6.17191 44.7527 6.17191Z" fill="#111012"/>
<path fill-rule="evenodd" clip-rule="evenodd" d="M32.8244 16.0618C31.8504 16.0618 30.952 15.8782 30.1292 15.511C29.3064 15.1271 28.6432 14.5095 28.1394 13.6582C27.6356 12.8069 27.3838 11.6803 27.3838 10.2781C27.3838 9.00956 27.6272 7.94954 28.1141 7.09831C28.618 6.24697 29.3064 5.60432 30.1797 5.17034C31.0528 4.73637 32.052 4.51938 33.177 4.51938C33.9495 4.51938 34.6547 4.61957 35.2929 4.81984C35.9477 5.0035 36.4935 5.2371 36.9301 5.52095C37.182 5.68779 37.3834 5.87976 37.5346 6.09675C37.7025 6.29711 37.7866 6.54743 37.7866 6.84789V14.159V14.5846V16.9131C37.7866 18.0148 37.5431 18.8995 37.0561 19.5671C36.5858 20.2349 35.931 20.7189 35.0913 21.0193C34.2685 21.3198 33.3365 21.47 32.2954 21.47C31.4559 21.47 30.7337 21.3782 30.1292 21.1946C29.5248 21.011 29.1133 20.8608 28.8951 20.7439C28.3912 20.4601 28.1394 20.1013 28.1394 19.6673C28.1394 19.4336 28.1898 19.2333 28.2905 19.0663C28.4081 18.9161 28.5509 18.7993 28.7187 18.7159C29.0714 18.983 29.5667 19.225 30.2048 19.442C30.8597 19.6757 31.5566 19.7925 32.2954 19.7925C33.4204 19.7925 34.277 19.5505 34.8646 19.0663C35.4692 18.5823 35.7714 17.8229 35.7714 16.788V15.2092C35.5297 15.3934 35.2106 15.5692 34.8144 15.7363C34.2769 15.9534 33.6136 16.0618 32.8244 16.0618ZM34.6883 6.39721C35.125 6.53071 35.486 6.68935 35.7714 6.87292V13.3644C35.5234 13.6046 35.2128 13.8276 34.8395 14.0338C34.3861 14.2841 33.7899 14.4093 33.0511 14.4093C32.0267 14.4093 31.162 14.0921 30.4567 13.4579C29.7683 12.8237 29.424 11.7554 29.424 10.253C29.424 8.90096 29.7683 7.88278 30.4567 7.19839C31.1451 6.5141 32.052 6.17191 33.177 6.17191C33.7648 6.17191 34.2685 6.24697 34.6883 6.39721Z" fill="#111012"/>
<path fill-rule="evenodd" clip-rule="evenodd" d="M66.8396 16.4539C65.8439 16.4539 64.9254 16.2653 64.0843 15.888C63.243 15.4937 62.565 14.8593 62.0499 13.9849C61.5349 13.1105 61.2773 11.9531 61.2773 10.5128C61.2773 9.20975 61.5263 8.12097 62.0241 7.24653C62.5392 6.3721 63.243 5.71203 64.1358 5.2662C65.0284 4.82037 66.0499 4.5975 67.2 4.5975C67.9897 4.5975 68.7107 4.70043 69.3631 4.90617C70.0326 5.09469 70.5906 5.33478 71.037 5.62622C71.2945 5.79773 71.5004 5.99486 71.655 6.21782C71.8267 6.42356 71.9125 6.68077 71.9125 6.98933V14.9365V16.4539C71.9125 16.4539 70.3256 16.8473 70.0068 16.1195C69.8694 15.8055 69.8524 15.5782 69.8524 15.5782C69.6052 15.7674 69.2792 15.9478 68.8739 16.1195C68.3245 16.3425 67.6465 16.4539 66.8396 16.4539ZM69.8524 7.01507V13.6832C69.5988 13.9298 69.2811 14.1589 68.8996 14.3706C68.4361 14.6278 67.8267 14.7564 67.0713 14.7564C66.0241 14.7564 65.1401 14.4306 64.4191 13.7792C63.7151 13.1275 63.3633 12.0303 63.3633 10.4871C63.3633 9.09832 63.7151 8.05239 64.4191 7.34946C65.1228 6.64642 66.0499 6.29491 67.2 6.29491C67.8009 6.29491 68.316 6.3721 68.7451 6.52638C69.1914 6.66354 69.5606 6.82644 69.8524 7.01507Z" fill="#111012"/>
<path fill-rule="evenodd" clip-rule="evenodd" d="M96.2854 13.4318L102.267 8.58816C102.505 8.40787 102.657 8.2123 102.722 8.00131C102.778 7.77623 102.713 7.50913 102.525 7.19991C102.014 6.35659 101.371 5.72583 100.596 5.30746C99.8273 4.86662 98.999 4.6621 98.1124 4.69389C97.2389 4.71723 96.3692 4.98661 95.5051 5.50214C94.8255 5.90781 94.2673 6.40328 93.8309 6.98873C93.3858 7.56008 93.0828 8.19034 92.9217 8.8796C92.7746 9.56032 92.7726 10.2888 92.9157 11.0649C93.0638 11.8185 93.8852 13.3325 93.8852 13.3325C93.8852 13.3325 92.5848 14.2644 92.0847 14.4748C91.5846 14.6852 91.0419 14.828 90.3661 14.828C89.2454 14.828 88.3142 14.4515 87.5725 13.6986C86.8308 12.9457 86.4599 11.8655 86.4599 10.4579C86.4599 9.06664 86.8143 7.99465 87.5229 7.24172C88.2483 6.48879 89.1959 6.11232 90.3661 6.11232C91.0584 6.11232 91.7105 6.26623 91.9346 6.3793C91.9346 6.3793 93.3963 5.59479 92.6848 5.13767C92.1587 4.7996 91.3884 4.49203 90.3661 4.49203C89.2289 4.49203 88.2071 4.70481 87.3005 5.13034C86.4105 5.57227 85.71 6.2351 85.199 7.11895C84.6881 8.0028 84.4326 9.11581 84.4326 10.4579C84.4326 11.7837 84.6963 12.8884 85.2237 13.7723C85.7511 14.6725 86.4599 15.3436 87.3499 15.7854C88.2565 16.2437 89.2454 16.4729 90.3167 16.4729C91.3383 16.4729 92.0847 16.2445 92.6848 15.9648C93.335 15.6982 94.385 15.0211 94.785 14.6238C95.2255 15.1187 95.7291 15.5808 96.2421 15.8838C97.1504 16.3949 98.1199 16.6105 99.1515 16.5307C100.198 16.4425 101.267 16.0732 102.358 15.4224C102.981 15.0506 103.499 14.6465 103.91 14.2101C104.335 13.7654 104.628 13.3418 104.789 12.9395C104.956 12.5146 104.959 12.1687 104.797 11.9016C104.695 11.733 104.556 11.615 104.38 11.5477C104.21 11.4578 104.017 11.4102 103.8 11.4047C103.654 11.7987 103.398 12.2376 103.037 12.7218C102.675 13.2058 102.196 13.6254 101.601 13.9803C100.48 14.6479 99.4198 14.888 98.4183 14.7004C97.6465 14.5375 96.9292 14.1105 96.2854 13.4318ZM100.731 7.86811C100.206 7.12899 99.5534 6.65707 98.7731 6.45244C97.9844 6.23381 97.1645 6.37804 96.3146 6.88512C95.4364 7.4091 94.898 8.16054 94.7003 9.13944C94.513 10.0705 94.7201 11.0601 95.3856 12.1902L100.731 7.86811Z" fill="#111012"/>
<path fill-rule="evenodd" clip-rule="evenodd" d="M22.1473 3.97441C22.2084 2.83911 21.7552 1.68934 20.818 0.896443C19.2247 -0.451476 16.8359 -0.257805 15.4825 1.329C14.9499 1.9534 14.657 2.70044 14.5947 3.45911C14.4996 4.25732 14.5924 5.05571 14.6974 5.96055C14.8486 7.26271 15.0253 8.78508 14.705 10.8439C14.4403 12.5457 13.7061 13.9634 13.0415 15.2467C12.5733 16.1511 12.1396 16.9884 11.9291 17.8117C11.5479 19.1828 11.9663 20.7114 13.1268 21.6931C14.7201 23.041 17.1088 22.8474 18.4622 21.2606C18.9628 20.6737 19.2517 19.9783 19.3362 19.267C19.5 18.2528 19.3864 17.1545 19.2668 15.999C19.1206 14.5845 18.9654 13.0845 19.2991 11.5484C19.7461 9.48926 20.4315 8.22365 21.0197 7.13741C21.5178 6.21755 21.9463 5.4264 22.1014 4.39122C22.1235 4.25887 22.1384 4.1257 22.1463 3.99235C22.1466 3.98649 22.1469 3.98035 22.1473 3.97441Z" fill="url(#paint0_linear_7015_18641)"/>
<path fill-rule="evenodd" clip-rule="evenodd" d="M20.0811 7.09848C21.0981 6.58608 21.8706 5.62501 22.0912 4.42594C22.4663 2.38763 21.1048 0.433618 19.0502 0.061543C18.2416 -0.0849987 17.4459 0.0354561 16.7555 0.359752C16.0149 0.675352 15.3677 1.15214 14.6343 1.69245C13.5787 2.4701 12.3444 3.37928 10.3958 4.12883C8.7851 4.7484 7.18674 4.82373 5.73985 4.89183C4.71947 4.93998 3.77443 4.98446 2.95372 5.21393C1.57317 5.56962 0.455301 6.68906 0.182265 8.17269C-0.192829 10.211 1.16864 12.165 3.22324 12.5371C3.98359 12.6748 4.73234 12.5766 5.39285 12.2949C6.35518 11.9306 7.25227 11.2868 8.19609 10.6095C9.35175 9.78016 10.5775 8.90064 12.0785 8.42257C14.0907 7.78175 15.5326 7.7402 16.7701 7.70468C17.8186 7.67439 18.7203 7.64848 19.6978 7.26589C19.8229 7.2193 19.9451 7.16621 20.0639 7.10708C20.0697 7.10433 20.0754 7.10123 20.0811 7.09848Z" fill="url(#paint1_linear_7015_18641)"/>
<path fill-rule="evenodd" clip-rule="evenodd" d="M13.5598 21.9616C14.5184 22.5821 15.7476 22.7662 16.9083 22.3542C18.8812 21.6538 19.9095 19.4961 19.2048 17.535C18.928 16.7644 18.4247 16.1389 17.7962 15.7058C17.1475 15.2235 16.4043 14.9037 15.562 14.5414C14.3514 14.0206 12.9362 13.4117 11.3025 12.1057C9.9522 11.0261 9.0845 9.68381 8.2991 8.46862C7.74597 7.61288 7.23361 6.82018 6.62213 6.227C5.61828 5.21189 4.07603 4.80799 2.63868 5.3182C0.665716 6.0186 -0.36249 8.17624 0.342145 10.1374C0.602718 10.8626 1.06378 11.4594 1.64121 11.8882C2.44304 12.5368 3.45719 12.9881 4.52426 13.463C5.83012 14.0441 7.21511 14.6605 8.38662 15.7165C9.957 17.132 10.7166 18.3563 11.3684 19.407C11.9191 20.2945 12.3929 21.0582 13.2138 21.7087C13.3216 21.7973 13.4342 21.8798 13.5507 21.9556C13.5536 21.9576 13.5567 21.9596 13.5598 21.9616Z" fill="url(#paint2_linear_7015_18641)"/>
</g>
</g>
<defs>
<linearGradient id="paint0_linear_7015_18641" x1="14.1421" y1="2.95718" x2="12.4482" y2="23.0309" gradientUnits="userSpaceOnUse">
<stop stop-color="#222D56"/>
<stop offset="1" stop-color="#4163DD"/>
</linearGradient>
<linearGradient id="paint1_linear_7015_18641" x1="22.2621" y1="4.51271" x2="-1.45215" y2="9.28064" gradientUnits="userSpaceOnUse">
<stop stop-color="#3F56B6"/>
<stop offset="1" stop-color="#344384"/>
</linearGradient>
<linearGradient id="paint2_linear_7015_18641" x1="18.514" y1="21.2565" x2="1.12191" y2="6.31246" gradientUnits="userSpaceOnUse">
<stop stop-color="#4B66D6"/>
<stop offset="1" stop-color="#3B4EA1"/>
</linearGradient>
<clipPath id="clip0_7015_18641">
<rect width="105.421" height="22.5902" fill="white" transform="translate(0.120117)"/>
</clipPath>
</defs>
</svg>
